<svg xmlns="http://www.w3.org/2000/svg" viewBox="0 0 160 160" width="160" height="160" role="img" aria-label="QIIME2_ITS logo">
  <defs>
    <linearGradient id="cap" x1="0" y1="0" x2="0" y2="1">
      <stop offset="0%" stop-color="#5B93D1"/>
      <stop offset="100%" stop-color="#2F5F9E"/>
    </linearGradient>
  </defs>

  <!-- Mushroom cap: stands in for the fungal ITS target -->
  <path d="M 20 82
           C 20 42 47 14 80 14
           C 113 14 140 42 140 82
           C 140 90 132 95 124 91
           C 121 93 116 93 113 90
           C 110 93 105 93 102 90
           C 99 93 94 93 91 90
           C 89 93.5 84.5 94 80 94
           C 75.5 94 71 93.5 69 90
           C 66 93 61 93 58 90
           C 55 93 50 93 47 90
           C 44 93 39 93 36 91
           C 28 95 20 90 20 82 Z" fill="url(#cap)"/>
  <circle cx="56" cy="48" r="5.5" fill="#EAF2FB"/>
  <circle cx="90" cy="36" r="4.5" fill="#EAF2FB"/>
  <circle cx="110" cy="58" r="4" fill="#EAF2FB"/>
  <circle cx="72" cy="30" r="3" fill="#EAF2FB"/>

  <!-- Stem -->
  <path d="M 64 92 L 60 140 C 60 148 100 148 100 140 L 96 92 Z" fill="#E8A33D"/>

  <!-- DNA / amplicon trace across the stem: stands in for the sequencing step -->
  <path d="M 66 106 C 78 111 82 101 94 106" fill="none" stroke="#2F5F9E" stroke-width="3.4" stroke-linecap="round"/>
  <path d="M 65 119 C 77 124 83 114 95 119" fill="none" stroke="#2F5F9E" stroke-width="3.4" stroke-linecap="round"/>
  <path d="M 64 132 C 76 137 84 127 96 132" fill="none" stroke="#2F5F9E" stroke-width="3.4" stroke-linecap="round"/>
</svg>
